<svg width="115" height="32" viewBox="0 0 115 32" fill="none" xmlns="http://www.w3.org/2000/svg">
<path fill-rule="evenodd" clip-rule="evenodd" d="M66.1396 19.4846C66.1396 22.3127 67.8266 23.7815 70.3416 23.7815C72.8407 23.7815 74.5278 22.2815 74.5278 19.4846V6.03149H79.0577V19.9846C79.0577 24.6877 75.6523 27.7658 70.3416 27.7658C65.015 27.7658 61.6254 24.6877 61.6254 19.9846V6.03149H66.1396V19.4846ZM43.6469 13.9078V27.3609H39.3982V6.03285H43.1002L52.1912 19.3766H52.3787V6.03285H56.6274V27.3609H52.941L43.8344 13.9078H43.6469ZM88.1173 27.3596V13.6721H88.3361L93.2252 24.3909H96.0525L100.926 13.6721H101.145V27.3596H105.222V6.03149H100.629L94.7402 18.9534H94.5841L88.711 6.03149H84.0874V27.3596H88.1173ZM115 6.03149V27.3596H110.47V6.03149H115Z" fill="white"/>
<path d="M4.85935 16.9568C3.89004 18.1792 2.41528 18.8896 0.854145 18.8896H0.259123C0.0895732 17.952 0 16.9856 0 16C0 7.16479 7.16266 0 15.9952 0C22.179 0 27.5438 3.51039 30.2054 8.64959H29.4632C27.9053 8.64959 26.4305 9.35999 25.458 10.5824L19.6773 17.8528C19.4054 18.1952 18.8552 18.0224 18.8232 17.5872L18.4489 12.3616C18.1578 8.28799 13.0169 6.69439 10.4769 9.89118L4.85935 16.9568Z" fill="white"/>
<path d="M27.7712 15.3825C28.7405 14.1601 30.2152 13.4497 31.7764 13.4497H31.7892C31.9203 14.2817 31.9907 15.1329 31.9907 16.0001C31.9907 24.8353 24.828 32.0001 15.9955 32.0001C9.94929 32.0001 4.68366 28.6433 1.96768 23.6897H3.16732C4.72525 23.6897 6.20001 22.9793 7.17252 21.7569L12.9532 14.4865C13.2251 14.1441 13.7753 14.3169 13.8073 14.7521L14.1816 19.9777C14.4727 24.0513 19.6136 25.6449 22.1536 22.4481L27.7712 15.3825Z" fill="white"/>
</svg>
