<svg width="16" height="16" viewBox="0 0 16 16" fill="none" xmlns="http://www.w3.org/2000/svg">
<path d="M7.14286 8.85714H2.85714C2.61429 8.85714 2.41071 8.775 2.24643 8.61071C2.08214 8.44643 2 8.24286 2 8C2 7.75714 2.08214 7.55357 2.24643 7.38929C2.41071 7.225 2.61429 7.14286 2.85714 7.14286H7.14286V2.85714C7.14286 2.61429 7.225 2.41071 7.38929 2.24643C7.55357 2.08214 7.75714 2 8 2C8.24286 2 8.44643 2.08214 8.61071 2.24643C8.775 2.41071 8.85714 2.61429 8.85714 2.85714V7.14286H13.1429C13.3857 7.14286 13.5893 7.225 13.7536 7.38929C13.9179 7.55357 14 7.75714 14 8C14 8.24286 13.9179 8.44643 13.7536 8.61071C13.5893 8.775 13.3857 8.85714 13.1429 8.85714H8.85714V13.1429C8.85714 13.3857 8.775 13.5893 8.61071 13.7536C8.44643 13.9179 8.24286 14 8 14C7.75714 14 7.55357 13.9179 7.38929 13.7536C7.225 13.5893 7.14286 13.3857 7.14286 13.1429V8.85714Z" fill="#404149"/>
</svg>
