<svg width="5" height="8" viewBox="0 0 5 8" fill="none" xmlns="http://www.w3.org/2000/svg">
<path d="M3.39954 3.99987L0.799544 1.39987C0.677322 1.27765 0.616211 1.12209 0.616211 0.933203C0.616211 0.744314 0.677322 0.588759 0.799544 0.466536C0.921767 0.344314 1.07732 0.283203 1.26621 0.283203C1.4551 0.283203 1.61066 0.344314 1.73288 0.466536L4.79954 3.5332C4.86621 3.59987 4.91343 3.67209 4.94121 3.74987C4.96899 3.82765 4.98288 3.91098 4.98288 3.99987C4.98288 4.08876 4.96899 4.17209 4.94121 4.24987C4.91343 4.32765 4.86621 4.39987 4.79954 4.46654L1.73288 7.5332C1.61066 7.65543 1.4551 7.71654 1.26621 7.71654C1.07732 7.71654 0.921767 7.65543 0.799544 7.5332C0.677322 7.41098 0.616211 7.25543 0.616211 7.06654C0.616211 6.87765 0.677322 6.72209 0.799544 6.59987L3.39954 3.99987Z" fill="#67C03D"/>
</svg>
