<svg width="16" height="16" viewBox="0 0 16 16" fill="none" xmlns="http://www.w3.org/2000/svg">
<path d="M4.66634 12.0002C4.47745 12.0002 4.31912 11.9363 4.19134 11.8085C4.06356 11.6807 3.99967 11.5224 3.99967 11.3335V10.0002H12.6663V4.00016H13.9997C14.1886 4.00016 14.3469 4.06405 14.4747 4.19183C14.6025 4.31961 14.6663 4.47794 14.6663 4.66683V13.0502C14.6663 13.3502 14.5302 13.5585 14.258 13.6752C13.9858 13.7918 13.7441 13.7446 13.533 13.5335L11.9997 12.0002H4.66634ZM3.99967 8.66683L2.46634 10.2002C2.25523 10.4113 2.01356 10.4585 1.74134 10.3418C1.46912 10.2252 1.33301 10.0168 1.33301 9.71683V2.00016C1.33301 1.81127 1.3969 1.65294 1.52467 1.52516C1.65245 1.39738 1.81079 1.3335 1.99967 1.3335H10.6663C10.8552 1.3335 11.0136 1.39738 11.1413 1.52516C11.2691 1.65294 11.333 1.81127 11.333 2.00016V8.00016C11.333 8.18905 11.2691 8.34738 11.1413 8.47516C11.0136 8.60294 10.8552 8.66683 10.6663 8.66683H3.99967Z" fill="white"/>
</svg>
