<svg width="16" height="12" viewBox="0 0 16 12" fill="none" xmlns="http://www.w3.org/2000/svg">
<path d="M8.03328 11.3334C6.5444 11.3334 5.27773 10.8167 4.23328 9.78342C3.18884 8.75008 2.66662 7.48897 2.66662 6.00008V5.88341L2.06662 6.48342C1.9444 6.60564 1.78884 6.66675 1.59995 6.66675C1.41106 6.66675 1.25551 6.60564 1.13328 6.48342C1.01106 6.36119 0.949951 6.20564 0.949951 6.01675C0.949951 5.82786 1.01106 5.6723 1.13328 5.55008L2.86662 3.81675C2.99995 3.68341 3.15551 3.61675 3.33328 3.61675C3.51106 3.61675 3.66662 3.68341 3.79995 3.81675L5.53328 5.55008C5.65551 5.6723 5.71662 5.82786 5.71662 6.01675C5.71662 6.20564 5.65551 6.36119 5.53328 6.48342C5.41106 6.60564 5.25551 6.66675 5.06662 6.66675C4.87773 6.66675 4.72217 6.60564 4.59995 6.48342L3.99995 5.88341V6.00008C3.99995 7.11119 4.39162 8.05564 5.17495 8.83342C5.95828 9.61119 6.91106 10.0001 8.03328 10.0001C8.21106 10.0001 8.38606 9.98897 8.55828 9.96675C8.73051 9.94453 8.89995 9.90564 9.06662 9.85008C9.25551 9.79453 9.43328 9.80008 9.59995 9.86675C9.76662 9.93342 9.8944 10.0501 9.98328 10.2167C10.0722 10.3945 10.0805 10.5695 10.0083 10.7417C9.93606 10.914 9.80551 11.0279 9.61662 11.0834C9.36106 11.1723 9.09995 11.2362 8.83328 11.2751C8.56662 11.314 8.29995 11.3334 8.03328 11.3334ZM7.96662 2.00008C7.78884 2.00008 7.61384 2.01119 7.44162 2.03341C7.2694 2.05564 7.09995 2.09453 6.93328 2.15008C6.7444 2.20564 6.56384 2.20008 6.39162 2.13341C6.2194 2.06675 6.08884 1.95008 5.99995 1.78341C5.91106 1.61675 5.90273 1.4473 5.97495 1.27508C6.04717 1.10286 6.17217 0.98897 6.34995 0.933415C6.61662 0.844526 6.88328 0.777859 7.14995 0.733415C7.41662 0.68897 7.68884 0.666748 7.96662 0.666748C9.45551 0.666748 10.7222 1.18341 11.7666 2.21675C12.8111 3.25008 13.3333 4.51119 13.3333 6.00008V6.11675L13.9333 5.51675C14.0555 5.39453 14.2111 5.33341 14.4 5.33341C14.5888 5.33341 14.7444 5.39453 14.8666 5.51675C14.9888 5.63897 15.05 5.79453 15.05 5.98341C15.05 6.1723 14.9888 6.32786 14.8666 6.45008L13.1333 8.18342C13 8.31675 12.8444 8.38342 12.6666 8.38342C12.4888 8.38342 12.3333 8.31675 12.2 8.18342L10.4666 6.45008C10.3444 6.32786 10.2833 6.1723 10.2833 5.98341C10.2833 5.79453 10.3444 5.63897 10.4666 5.51675C10.5888 5.39453 10.7444 5.33341 10.9333 5.33341C11.1222 5.33341 11.2777 5.39453 11.4 5.51675L12 6.11675V6.00008C12 4.88897 11.6083 3.94453 10.825 3.16675C10.0416 2.38897 9.08884 2.00008 7.96662 2.00008Z" fill="#FBD928"/>
</svg>
