<svg width="76" height="84" viewBox="0 0 76 84" fill="none" xmlns="http://www.w3.org/2000/svg">
<g filter="url(#filter0_diiii_3810_1533)">
<path d="M38.0005 8H37.9995C22.5358 8 10 20.5358 10 35.9995C10 51.4632 22.5358 63.999 37.9995 63.999H38.0005C53.4642 63.999 66 51.4632 66 35.9995C66 20.5358 53.4642 8 38.0005 8Z" fill="white"/>
<path fill-rule="evenodd" clip-rule="evenodd" d="M24.076 37.1955C22.864 38.7234 21.02 39.6113 19.068 39.6113H18.324C18.112 38.4394 18 37.2315 18 35.9994C18 24.9558 26.956 16 38 16C45.7321 16 52.4401 20.3879 55.7682 26.8117H54.8401C52.892 26.8117 51.0481 27.6997 49.832 29.2277L42.6041 38.3154C42.2641 38.7435 41.576 38.5275 41.5361 37.9834L41.0681 31.4516C40.7041 26.3597 34.2761 24.3678 31.1 28.3637L24.076 37.1955ZM52.724 35.2276C53.936 33.6995 55.78 32.8116 57.7321 32.8116H57.748C57.9121 33.8517 58 34.9156 58 35.9996C58 47.0432 49.0441 55.999 38 55.999C30.4399 55.999 23.8559 51.8032 20.4599 45.6114H21.9599C23.9079 45.6114 25.7519 44.7234 26.9679 43.1954L34.196 34.1075C34.536 33.6796 35.224 33.8956 35.264 34.4396L35.732 40.9714C36.0959 46.0633 42.524 48.0552 45.7 44.0593L52.724 35.2276Z" fill="#1B1C21"/>
<path d="M10.4043 62.3831L14.0001 48L19.0001 54.5L26.0001 60L11.617 63.5958C10.8846 63.7789 10.2212 63.1155 10.4043 62.3831Z" fill="white"/>
</g>
<defs>
<filter id="filter0_diiii_3810_1533" x="2" y="0" width="72" height="73.999" filterUnits="userSpaceOnUse" color-interpolation-filters="sRGB">
<feFlood flood-opacity="0" result="BackgroundImageFix"/>
<feColorMatrix in="SourceAlpha" type="matrix" values="0 0 0 0 0 0 0 0 0 0 0 0 0 0 0 0 0 0 127 0" result="hardAlpha"/>
<feOffset/>
<feGaussianBlur stdDeviation="4"/>
<feComposite in2="hardAlpha" operator="out"/>
<feColorMatrix type="matrix" values="0 0 0 0 1 0 0 0 0 1 0 0 0 0 1 0 0 0 0.05 0"/>
<feBlend mode="normal" in2="BackgroundImageFix" result="effect1_dropShadow_3810_1533"/>
<feBlend mode="normal" in="SourceGraphic" in2="effect1_dropShadow_3810_1533" result="shape"/>
<feColorMatrix in="SourceAlpha" type="matrix" values="0 0 0 0 0 0 0 0 0 0 0 0 0 0 0 0 0 0 127 0" result="hardAlpha"/>
<feOffset dy="1"/>
<feGaussianBlur stdDeviation="0.5"/>
<feComposite in2="hardAlpha" operator="arithmetic" k2="-1" k3="1"/>
<feColorMatrix type="matrix" values="0 0 0 0 1 0 0 0 0 1 0 0 0 0 1 0 0 0 0.05 0"/>
<feBlend mode="normal" in2="shape" result="effect2_innerShadow_3810_1533"/>
<feColorMatrix in="SourceAlpha" type="matrix" values="0 0 0 0 0 0 0 0 0 0 0 0 0 0 0 0 0 0 127 0" result="hardAlpha"/>
<feOffset dy="2"/>
<feGaussianBlur stdDeviation="1"/>
<feComposite in2="hardAlpha" operator="arithmetic" k2="-1" k3="1"/>
<feColorMatrix type="matrix" values="0 0 0 0 1 0 0 0 0 1 0 0 0 0 1 0 0 0 0.05 0"/>
<feBlend mode="normal" in2="effect2_innerShadow_3810_1533" result="effect3_innerShadow_3810_1533"/>
<feColorMatrix in="SourceAlpha" type="matrix" values="0 0 0 0 0 0 0 0 0 0 0 0 0 0 0 0 0 0 127 0" result="hardAlpha"/>
<feOffset dy="5"/>
<feGaussianBlur stdDeviation="2.5"/>
<feComposite in2="hardAlpha" operator="arithmetic" k2="-1" k3="1"/>
<feColorMatrix type="matrix" values="0 0 0 0 1 0 0 0 0 1 0 0 0 0 1 0 0 0 0.05 0"/>
<feBlend mode="normal" in2="effect3_innerShadow_3810_1533" result="effect4_innerShadow_3810_1533"/>
<feColorMatrix in="SourceAlpha" type="matrix" values="0 0 0 0 0 0 0 0 0 0 0 0 0 0 0 0 0 0 127 0" result="hardAlpha"/>
<feOffset dy="10"/>
<feGaussianBlur stdDeviation="5"/>
<feComposite in2="hardAlpha" operator="arithmetic" k2="-1" k3="1"/>
<feColorMatrix type="matrix" values="0 0 0 0 1 0 0 0 0 1 0 0 0 0 1 0 0 0 0.05 0"/>
<feBlend mode="normal" in2="effect4_innerShadow_3810_1533" result="effect5_innerShadow_3810_1533"/>
</filter>
</defs>
</svg>
