<svg width="8" height="10" viewBox="0 0 8 10" fill="none" xmlns="http://www.w3.org/2000/svg">
<path d="M6.66667 9.66658C6.3 9.66658 5.98611 9.53603 5.725 9.27492C5.46389 9.01381 5.33333 8.69992 5.33333 8.33325V1.66659C5.33333 1.29992 5.46389 0.98603 5.725 0.724919C5.98611 0.463807 6.3 0.333252 6.66667 0.333252C7.03333 0.333252 7.34722 0.463807 7.60833 0.724919C7.86944 0.98603 8 1.29992 8 1.66659V8.33325C8 8.69992 7.86944 9.01381 7.60833 9.27492C7.34722 9.53603 7.03333 9.66658 6.66667 9.66658ZM1.33333 9.66658C0.966667 9.66658 0.652778 9.53603 0.391667 9.27492C0.130556 9.01381 0 8.69992 0 8.33325V1.66659C0 1.29992 0.130556 0.98603 0.391667 0.724919C0.652778 0.463807 0.966667 0.333252 1.33333 0.333252C1.7 0.333252 2.01389 0.463807 2.275 0.724919C2.53611 0.98603 2.66667 1.29992 2.66667 1.66659V8.33325C2.66667 8.69992 2.53611 9.01381 2.275 9.27492C2.01389 9.53603 1.7 9.66658 1.33333 9.66658Z" fill="#E22C4D"/>
</svg>
