<svg width="24" height="24" viewBox="0 0 24 24" fill="none" xmlns="http://www.w3.org/2000/svg">
<path d="M12 21C11.7167 21 11.4792 20.9042 11.2875 20.7125C11.0958 20.5208 11 20.2833 11 20V13.025C9.93333 13.025 8.90833 12.8208 7.925 12.4125C6.94167 12.0042 6.075 11.425 5.325 10.675C4.575 9.925 4 9.05833 3.6 8.075C3.2 7.09167 3 6.06667 3 5V4C3 3.71667 3.09583 3.47917 3.2875 3.2875C3.47917 3.09583 3.71667 3 4 3H5C6.05 3 7.06667 3.20417 8.05 3.6125C9.03333 4.02083 9.9 4.6 10.65 5.35C11.1667 5.86667 11.5958 6.43333 11.9375 7.05C12.2792 7.66667 12.5417 8.325 12.725 9.025C12.8083 8.90833 12.9 8.79583 13 8.6875C13.1 8.57917 13.2083 8.46667 13.325 8.35C14.075 7.6 14.9417 7.02083 15.925 6.6125C16.9083 6.20417 17.9333 6 19 6H20C20.2833 6 20.5208 6.09583 20.7125 6.2875C20.9042 6.47917 21 6.71667 21 7V8C21 9.06667 20.7958 10.0917 20.3875 11.075C19.9792 12.0583 19.4 12.925 18.65 13.675C17.9 14.425 17.0375 15 16.0625 15.4C15.0875 15.8 14.0667 16 13 16V20C13 20.2833 12.9042 20.5208 12.7125 20.7125C12.5208 20.9042 12.2833 21 12 21Z" fill="white"/>
</svg>
