<svg width="16" height="16" viewBox="0 0 16 16" fill="none" xmlns="http://www.w3.org/2000/svg">
<path d="M2.66659 14C2.29992 14 1.98603 13.8694 1.72492 13.6083C1.46381 13.3472 1.33325 13.0333 1.33325 12.6667V9.33333C1.33325 8.96667 1.46381 8.65278 1.72492 8.39167C1.98603 8.13056 2.29992 8 2.66659 8H5.43325C5.59992 8 5.74436 8.05556 5.86658 8.16667C5.98881 8.27778 6.06103 8.41111 6.08325 8.56667C6.13881 8.94444 6.36103 9.27778 6.74992 9.56667C7.13881 9.85556 7.55547 10 7.99992 10C8.44436 10 8.86103 9.85556 9.24992 9.56667C9.63881 9.27778 9.86103 8.94444 9.91658 8.56667C9.93881 8.41111 10.011 8.27778 10.1333 8.16667C10.2555 8.05556 10.3999 8 10.5666 8H13.3333C13.6999 8 14.0138 8.13056 14.2749 8.39167C14.536 8.65278 14.6666 8.96667 14.6666 9.33333V12.6667C14.6666 13.0333 14.536 13.3472 14.2749 13.6083C14.0138 13.8694 13.6999 14 13.3333 14H2.66659ZM11.2666 6.73333C11.1444 6.61111 11.0833 6.45556 11.0833 6.26667C11.0833 6.07778 11.1444 5.92222 11.2666 5.8L12.6999 4.36667C12.8221 4.24444 12.9777 4.18333 13.1666 4.18333C13.3555 4.18333 13.511 4.24444 13.6333 4.36667C13.7555 4.48889 13.8166 4.64444 13.8166 4.83333C13.8166 5.02222 13.7555 5.17778 13.6333 5.3L12.1999 6.73333C12.0777 6.85556 11.9221 6.91667 11.7333 6.91667C11.5444 6.91667 11.3888 6.85556 11.2666 6.73333ZM4.73325 6.73333C4.61103 6.85556 4.45547 6.91667 4.26659 6.91667C4.0777 6.91667 3.92214 6.85556 3.79992 6.73333L2.36659 5.3C2.24436 5.17778 2.18325 5.02222 2.18325 4.83333C2.18325 4.64444 2.24436 4.48889 2.36659 4.36667C2.48881 4.24444 2.64436 4.18333 2.83325 4.18333C3.02214 4.18333 3.1777 4.24444 3.29992 4.36667L4.73325 5.8C4.85547 5.92222 4.91658 6.07778 4.91658 6.26667C4.91658 6.45556 4.85547 6.61111 4.73325 6.73333ZM7.99992 5.33333C7.81103 5.33333 7.6527 5.26944 7.52492 5.14167C7.39714 5.01389 7.33325 4.85556 7.33325 4.66667V2.66667C7.33325 2.47778 7.39714 2.31944 7.52492 2.19167C7.6527 2.06389 7.81103 2 7.99992 2C8.18881 2 8.34714 2.06389 8.47492 2.19167C8.6027 2.31944 8.66658 2.47778 8.66658 2.66667V4.66667C8.66658 4.85556 8.6027 5.01389 8.47492 5.14167C8.34714 5.26944 8.18881 5.33333 7.99992 5.33333Z" fill="#EB9003"/>
</svg>
