<svg width="14" height="12" viewBox="0 0 14 12" fill="none" xmlns="http://www.w3.org/2000/svg">
<path d="M1.66659 12C1.29992 12 0.98603 11.8694 0.724919 11.6083C0.463807 11.3472 0.333252 11.0333 0.333252 10.6667V7.33333C0.333252 6.96667 0.463807 6.65278 0.724919 6.39167C0.98603 6.13056 1.29992 6 1.66659 6H4.43325C4.59992 6 4.74436 6.05556 4.86659 6.16667C4.98881 6.27778 5.06103 6.41111 5.08325 6.56667C5.13881 6.94444 5.36103 7.27778 5.74992 7.56667C6.13881 7.85556 6.55547 8 6.99992 8C7.44436 8 7.86103 7.85556 8.24992 7.56667C8.63881 7.27778 8.86103 6.94444 8.91658 6.56667C8.93881 6.41111 9.01103 6.27778 9.13325 6.16667C9.25547 6.05556 9.39992 6 9.56658 6H12.3333C12.6999 6 13.0138 6.13056 13.2749 6.39167C13.536 6.65278 13.6666 6.96667 13.6666 7.33333V10.6667C13.6666 11.0333 13.536 11.3472 13.2749 11.6083C13.0138 11.8694 12.6999 12 12.3333 12H1.66659ZM10.2666 4.73333C10.1444 4.61111 10.0833 4.45556 10.0833 4.26667C10.0833 4.07778 10.1444 3.92222 10.2666 3.8L11.6999 2.36667C11.8221 2.24444 11.9777 2.18333 12.1666 2.18333C12.3555 2.18333 12.511 2.24444 12.6333 2.36667C12.7555 2.48889 12.8166 2.64444 12.8166 2.83333C12.8166 3.02222 12.7555 3.17778 12.6333 3.3L11.1999 4.73333C11.0777 4.85556 10.9221 4.91667 10.7333 4.91667C10.5444 4.91667 10.3888 4.85556 10.2666 4.73333ZM3.73325 4.73333C3.61103 4.85556 3.45547 4.91667 3.26659 4.91667C3.0777 4.91667 2.92214 4.85556 2.79992 4.73333L1.36659 3.3C1.24436 3.17778 1.18325 3.02222 1.18325 2.83333C1.18325 2.64444 1.24436 2.48889 1.36659 2.36667C1.48881 2.24444 1.64436 2.18333 1.83325 2.18333C2.02214 2.18333 2.1777 2.24444 2.29992 2.36667L3.73325 3.8C3.85547 3.92222 3.91659 4.07778 3.91659 4.26667C3.91659 4.45556 3.85547 4.61111 3.73325 4.73333ZM6.99992 3.33333C6.81103 3.33333 6.6527 3.26944 6.52492 3.14167C6.39714 3.01389 6.33325 2.85556 6.33325 2.66667V0.666667C6.33325 0.477778 6.39714 0.319444 6.52492 0.191667C6.6527 0.0638889 6.81103 0 6.99992 0C7.18881 0 7.34714 0.0638889 7.47492 0.191667C7.6027 0.319444 7.66658 0.477778 7.66658 0.666667V2.66667C7.66658 2.85556 7.6027 3.01389 7.47492 3.14167C7.34714 3.26944 7.18881 3.33333 6.99992 3.33333Z" fill="#EB9003"/>
</svg>
