<svg width="40" height="40" viewBox="0 0 40 40" fill="none" xmlns="http://www.w3.org/2000/svg">
<path fill-rule="evenodd" clip-rule="evenodd" d="M6.07602 21.1955C4.86402 22.7234 3.02 23.6113 1.068 23.6113H0.324001C0.112 22.4394 0 21.2315 0 19.9994C0 8.95578 8.95603 0 20 0C27.7321 0 34.4401 4.38788 37.7682 10.8117H36.8401C34.892 10.8117 33.0481 11.6997 31.832 13.2277L24.6041 22.3154C24.2641 22.7435 23.576 22.5275 23.5361 21.9834L23.0681 15.4516C22.7041 10.3597 16.2761 8.36779 13.1 12.3637L6.07602 21.1955ZM34.724 19.2276C35.936 17.6995 37.78 16.8116 39.7321 16.8116H39.748C39.9121 17.8517 40 18.9156 40 19.9996C40 31.0432 31.0441 39.999 20 39.999C12.4399 39.999 5.85593 35.8032 2.45992 29.6114H3.95992C5.90792 29.6114 7.75193 28.7234 8.96794 27.1954L16.196 18.1075C16.536 17.6796 17.224 17.8956 17.264 18.4396L17.732 24.9714C18.0959 30.0633 24.524 32.0552 27.7 28.0593L34.724 19.2276Z" fill="#1B1C21"/>
</svg>
