<svg width="32" height="32" viewBox="0 0 32 32" fill="none" xmlns="http://www.w3.org/2000/svg">
<path fill-rule="evenodd" clip-rule="evenodd" d="M4.86079 16.9563C3.89119 18.1786 2.41599 18.8889 0.854397 18.8889H0.259199C0.0895997 17.9514 0 16.9851 0 15.9994C0 7.16457 7.16478 0 15.9999 0C22.1855 0 27.5519 3.51028 30.2143 8.64932H29.4719C27.9135 8.64932 26.4383 9.3597 25.4655 10.5821L19.6832 17.8522C19.4111 18.1947 18.8607 18.0219 18.8288 17.5866L18.4544 12.3612C18.1631 8.28774 13.0208 6.69419 10.48 9.89089L4.86079 16.9563ZM27.7791 15.382C28.7487 14.1595 30.2238 13.4492 31.7855 13.4492H31.7982C31.9295 14.2812 31.9998 15.1324 31.9998 15.9996C31.9998 24.8344 24.8351 31.999 15.9999 31.999C9.95189 31.999 4.68471 28.6424 1.96792 23.6889H3.16792C4.7263 23.6889 6.20151 22.9786 7.17431 21.7562L12.9567 14.4859C13.2287 14.1436 13.7791 14.3164 13.8111 14.7516L14.1855 19.977C14.4766 24.0505 19.6191 25.644 22.1598 22.4473L27.7791 15.382Z" fill="white"/>
</svg>
